<?xml version="1.0" encoding="UTF-8"?>
<svg version="1.1" xmlns="http://www.w3.org/2000/svg" width="548" height="523">
<path d="M0 0 C180.84 0 361.68 0 548 0 C548 172.59 548 345.18 548 523 C367.16 523 186.32 523 0 523 C0 350.41 0 177.82 0 0 Z " fill="#FEFEFE" transform="translate(0,0)"/>
<path d="M0 0 C6.57782006 4.83558664 9.71433404 11.45195283 13.125 18.6875 C15.50483903 23.59708918 17.18141193 26.06799223 22.125 28.375 C25.75139545 29.58379848 28.43014158 29.25615087 32.25 29.0625 C47.27751508 28.75995566 63.32335389 35.90896028 74.69921875 45.55859375 C81.87078006 52.57565104 81.87078006 52.57565104 82.42578125 56.50390625 C82.47161768 66.02260406 79.34658021 74.03000077 75.9921875 82.83203125 C74.17164507 88.17064891 73.22873904 93.76318424 74.125 99.375 C77.22995063 103.66713763 80.13774694 104.96864191 85.125 106.375 C87.65968858 106.7398006 90.20281422 107.04873816 92.75 107.3125 C109.6328125 109.25390625 109.6328125 109.25390625 115.453125 112.7890625 C118.24810305 117.11213603 117.75310201 121.38551469 117.125 126.375 C116.05789278 130.70535921 114.6295274 134.86659672 113.125 139.0625 C108.89057379 150.17531388 108.89057379 150.17531388 109.86328125 161.74609375 C113.21943847 166.07896546 119.65935363 167.00429723 124.79785156 167.77685547 C128.85287978 168.29125941 132.90552557 168.77804765 136.9753418 169.16040039 C142.81780814 169.77753136 146.62959584 170.49490881 151.125 174.375 C153.6579453 178.17441795 153.70161389 180.98359297 153.125 185.375 C151.7040894 190.62284767 149.81568476 195.71394992 147.96875 200.82421875 C145.48773367 208.06346996 144.15747885 214.70324891 145.125 222.375 C147.78041179 227.50269174 150.39735435 228.66827126 155.75 230.625 C156.69101562 230.91890625 157.63203125 231.2128125 158.6015625 231.515625 C161.125 232.375 161.125 232.375 164.125 234.375 C116.275 234.375 68.425 234.375 19.125 234.375 C19.125 236.025 19.125 237.675 19.125 239.375 C20.0065979 239.56835938 20.0065979 239.56835938 20.90600586 239.765625 C35.8887937 243.88016328 48.69648854 256.5868847 59.125 267.375 C60.4553125 268.674375 60.4553125 268.674375 61.8125 270 C67.18776329 275.52054068 71.4655302 281.23595291 75.51953125 287.8046875 C76.74936834 289.77362377 78.07427043 291.68345384 79.4375 293.5625 C81.57941291 297.13235485 82.28346852 300.30759787 83.125 304.375 C83.785 304.375 84.445 304.375 85.125 304.375 C87.92269535 310.29107514 90.53992547 316.13564496 92.44921875 322.40234375 C93.17005643 324.50652309 94.11687218 326.39474892 95.125 328.375 C96.70541593 332.83735085 97.32071505 336.89794301 97.68359375 341.625 C97.81012329 343.24148438 97.81012329 343.24148438 97.93920898 344.890625 C98.00052002 345.71046875 98.06183105 346.5303125 98.125 347.375 C74.34247146 360.69089006 74.34247146 360.69089006 62.125 365.375 C61.03832031 365.80039062 59.95164062 366.22578125 58.83203125 366.6640625 C4.1663027 387.17157402 -56.03703863 382.96256404 -108.875 359.375 C-119.85694133 354.26687231 -133.22808033 348.02191967 -141.875 339.375 C-142.81802464 326.98624492 -134.78784784 310.28341524 -127.875 300.375 C-127.17278614 298.68330296 -126.4712276 296.99127652 -125.78515625 295.29296875 C-124.30808866 292.18034993 -122.31968749 289.43064915 -120.37109375 286.59765625 C-118.36111983 283.61155922 -116.61681254 280.52366113 -114.875 277.375 C-114.215 277.375 -113.555 277.375 -112.875 277.375 C-112.875 276.385 -112.875 275.395 -112.875 274.375 C-111.22308509 273.02343325 -109.55205908 271.695238 -107.875 270.375 C-106.79115409 269.1646137 -105.73054318 267.93321982 -104.6875 266.6875 C-93.82819413 254.04181481 -77.8991549 241.71638497 -61.875 236.375 C-106.425 236.375 -150.975 236.375 -196.875 236.375 C-193.87531745 233.97525396 -190.996431 231.74624306 -187.875 229.5625 C-183.26974654 226.05622748 -179.50506667 222.84873039 -178.43359375 216.94140625 C-178.08874305 209.27682125 -180.3636285 202.52969866 -182.875 195.375 C-183.43933537 193.66727209 -184.00207608 191.95901552 -184.5625 190.25 C-184.99887109 188.95795151 -185.43620617 187.66622771 -185.875 186.375 C-187.56858993 181.29423022 -187.83685109 176.38614319 -185.5 171.5 C-178.32566438 165.6922045 -167.67327918 165.54546258 -158.82226562 164.64648438 C-152.90047984 163.94907546 -148.7441589 162.90003385 -143.875 159.375 C-141.34437292 151.78311877 -143.84336795 145.4789291 -146.3125 138.1875 C-146.95789988 136.23596414 -147.6024646 134.28415183 -148.24609375 132.33203125 C-148.53411865 131.47585205 -148.82214355 130.61967285 -149.11889648 129.73754883 C-150.96714009 123.96245895 -151.80066662 118.43227479 -150.875 112.375 C-146.13613843 106.56989457 -139.62762757 105.59073046 -132.4375 104.84765625 C-130.15463609 104.63388291 -127.87128921 104.43719921 -125.5859375 104.25195312 C-119.61892241 103.68293365 -113.65345929 102.63249817 -108.875 98.75 C-105.1211563 89.83462121 -110.02153934 80.12531134 -113.03125 71.70117188 C-115.23645229 65.25489305 -116.9667441 59.23009907 -115.875 52.375 C-112.36133575 46.87025934 -106.92111866 45.77316494 -100.875 44.375 C-100.06675781 44.18550781 -99.25851563 43.99601562 -98.42578125 43.80078125 C-95.59276908 43.32788948 -92.93291455 43.27791669 -90.0625 43.3125 C-89.08667969 43.32152344 -88.11085938 43.33054688 -87.10546875 43.33984375 C-86.00138672 43.35724609 -86.00138672 43.35724609 -84.875 43.375 C-84.97941406 41.79912109 -84.97941406 41.79912109 -85.0859375 40.19140625 C-85.73976329 26.18752526 -85.73976329 26.18752526 -80.6796875 20.078125 C-75.07531608 14.78915111 -70.33784722 14.26074274 -62.75 14.125 C-57.46537406 14.10200181 -57.46537406 14.10200181 -52.859375 11.7890625 C-51.46938352 9.75857474 -51.46938352 9.75857474 -50.26953125 7.5703125 C-40.00330809 -8.59108082 -14.81397757 -8.94804014 0 0 Z " fill="#0F0E0E" transform="translate(300.875,102.625)"/>
<path d="M0 0 C1.02738281 0.28488281 2.05476563 0.56976563 3.11328125 0.86328125 C37.24166857 10.70717442 69.55621014 29.07310379 94 55 C95.2375 56.2375 95.2375 56.2375 96.5 57.5 C97.7375 58.7375 97.7375 58.7375 99 60 C99.98226562 60.93005859 99.98226562 60.93005859 100.984375 61.87890625 C132.72591418 92.47118281 152.47027111 139.65154795 157 183 C157.11085938 184.02996094 157.22171875 185.05992187 157.3359375 186.12109375 C159.28680918 208.08158174 158.00090995 230.07594666 154.5625 251.8125 C154.45252686 252.52325684 154.34255371 253.23401367 154.22924805 253.96630859 C153.49675356 258.25918571 152.3038653 262.12463257 150.70239258 266.17163086 C149.79595621 268.53113798 149.16980979 270.9231282 148.5625 273.375 C147.1201794 278.7948542 145.18484406 283.84196608 143 289 C142.61457031 289.97839844 142.22914063 290.95679688 141.83203125 291.96484375 C135.52919956 307.50936413 127.49890473 322.87636908 117 336 C116.14902802 337.11174281 115.30021299 338.22513871 114.453125 339.33984375 C108.36978462 347.28929284 101.90513662 354.75647996 95 362 C93.96939453 363.09248047 93.96939453 363.09248047 92.91796875 364.20703125 C85.35307202 372.01844193 76.72045164 378.54558352 68 385 C67.35281006 385.48122314 66.70562012 385.96244629 66.03881836 386.45825195 C63.37860446 388.40421088 61.14708237 389.95097254 58 391 C57.34 391.66 56.68 392.32 56 393 C55.89042969 392.23816406 55.78085937 391.47632813 55.66796875 390.69140625 C54.49541864 383.05553112 53.02971377 375.97485614 49.5 369.0625 C47.79758984 365.58674592 46.76059281 362.12572338 45.6953125 358.4140625 C44.87913393 355.58036388 43.95442449 352.78985622 43 350 C42.34 350 41.68 350 41 350 C40.54625 348.845 40.0925 347.69 39.625 346.5 C34.92561191 335.96803804 28.45739006 325.85163646 20.3984375 317.6015625 C19 316 19 316 19 314 C18.43152344 313.76410156 17.86304688 313.52820313 17.27734375 313.28515625 C14.48723982 311.71063791 12.74146314 309.78548894 10.5625 307.4375 C1.64508897 298.34985939 -10.79332306 289.06889231 -23 285 C-23 283.35 -23 281.7 -23 280 C47.29 279.505 47.29 279.505 119 279 C115.37 277.68 111.74 276.36 108 275 C104.17545367 271.88850468 102.32722426 270.29253184 101.63354492 265.43261719 C101.55508919 257.3687322 103.27286687 250.79568254 106 243.25 C109.6309752 233.36854013 109.6309752 233.36854013 110 223 C106.57091046 218.07068378 102.62379703 217.09861864 97 216 C92.60532243 215.34028094 88.19345593 214.81451157 83.77734375 214.3203125 C78.0985173 213.59289368 72.64430588 212.56092226 68 209 C65.58270209 205.11738832 65.40752509 201.45530293 66 197 C67.42252229 191.72328555 69.31266843 186.60436557 71.15625 181.46289062 C73.44602334 174.76121471 75.36974124 168.11787268 74 161 C71.34825121 157.52425044 67.90137915 156.89362063 63.8125 155.9375 C63.11141113 155.76541016 62.41032227 155.59332031 61.68798828 155.41601562 C55.34347657 153.92917528 49.01124679 153.21389426 42.5234375 152.6875 C38.48441344 151.89939774 36.20022748 150.55267412 33 148 C30.30817719 143.96226579 30.45815214 140.6677255 31 136 C32.82761913 128.19435573 35.37613061 120.57078237 38 113 C39.50037106 108.49888682 39.98319973 104.6834852 39 100 C31.57873262 87.28055977 14.88981801 80.23588727 1.16552734 76.44238281 C-3.70145203 75.44813629 -8.58613088 75.83548259 -13.51953125 76.03515625 C-18.52023121 75.98464413 -20.94807205 74.88310258 -25 72 C-28.06589622 68.65427992 -29.93624299 65.25631025 -31.7890625 61.17456055 C-35.90297844 52.13251615 -39.7570602 47.03441064 -49.125 43.1875 C-59.99429793 39.61345619 -70.72294099 39.83252103 -81 45 C-88.83657913 49.74488689 -88.83657913 49.74488689 -94.1875 56.9375 C-95.2421875 58.671875 -95.2421875 58.671875 -97 60 C-100.36743787 60.48632582 -103.58576663 60.6601225 -106.97851562 60.73583984 C-113.64151152 60.90287447 -117.73979997 61.87975805 -122.546875 66.48046875 C-127.55629799 72.85481879 -126.89678902 81.26855914 -127 89 C-128.03898438 89.10957031 -129.07796875 89.21914062 -130.1484375 89.33203125 C-143.40568457 90.6328336 -143.40568457 90.6328336 -155.625 95.5625 C-158.30259036 100.30913746 -157.53495527 105.86519303 -156.24462891 111.0144043 C-155.22078353 114.22039239 -154.13229856 117.39321164 -153 120.5625 C-150.37248144 127.94351919 -148.305307 134.11365566 -149 142 C-151.2776297 146.36545693 -154.03551393 147.67700773 -158.57910156 149.31298828 C-164.13762099 150.89040596 -169.95816787 151.2244727 -175.6875 151.81640625 C-182.03389186 152.5409943 -187.29516863 153.29516863 -192 158 C-193.71334525 167.41438129 -190.01146814 176.26302453 -187 185 C-182.53061224 198.40816327 -182.53061224 198.40816327 -185.125 204.75 C-188.83900773 209.20680927 -193.70855958 210.36549075 -199.28125 211.0625 C-200.45300781 211.21976563 -201.62476563 211.37703125 -202.83203125 211.5390625 C-205.27734375 211.84635417 -207.72265625 212.15364583 -210.16796875 212.4609375 C-211.33972656 212.61820313 -212.51148438 212.77546875 -213.71875 212.9375 C-214.78029297 213.07027344 -215.84183594 213.20304688 -216.93554688 213.33984375 C-221.88252951 214.40554173 -225.16309186 215.74463778 -228 220 C-229.53590545 229.57447555 -225.53928717 239.16919647 -221.8671875 247.80859375 C-219.65266361 253.40475548 -219.04623787 259.04302807 -220 265 C-223.70528827 272.56595959 -230.13786025 276.19650218 -237 281 C-192.45 281 -147.9 281 -102 281 C-104.54499205 283.54499205 -107.18778034 284.6320482 -110.4375 286.1875 C-118.52320891 290.14544461 -126.26146284 294.47609706 -133.0625 300.4375 C-136 303 -136 303 -138 303 C-138.33 303.99 -138.66 304.98 -139 306 C-140.63671875 307.578125 -140.63671875 307.578125 -142.6875 309.25 C-146.13108516 312.1495358 -148.99325729 315.18137449 -151.7734375 318.71484375 C-152.17820312 319.13894531 -152.58296875 319.56304687 -153 320 C-153.66 320 -154.32 320 -155 320 C-155 320.99 -155 321.98 -155 323 C-155.66 323 -156.32 323 -157 323 C-157.09539062 323.55816406 -157.19078125 324.11632812 -157.2890625 324.69140625 C-158.17439268 327.56629712 -159.60284184 329.51106404 -161.375 331.9375 C-164.51846912 336.26478622 -167.33586351 340.44072302 -169.4375 345.375 C-170.77940127 348.48821096 -172.33301889 351.29230601 -174.03515625 354.21484375 C-175.7249186 357.34124615 -176.85645964 360.6477036 -178 364 C-178.41636719 365.19882812 -178.83273438 366.39765625 -179.26171875 367.6328125 C-179.71712094 368.96320828 -180.17153925 370.29394123 -180.625 371.625 C-180.84341553 372.25857422 -181.06183105 372.89214844 -181.28686523 373.54492188 C-182.56133073 377.34301756 -183.45065904 381.0325375 -184 385 C-186.68309781 383.02140273 -189.34195398 381.01208409 -192 379 C-192.71285156 378.47792969 -193.42570312 377.95585937 -194.16015625 377.41796875 C-206.94195072 367.70555889 -218.1854837 355.65342597 -228 343 C-228.62390625 342.278125 -229.2478125 341.55625 -229.890625 340.8125 C-238.91858079 330.2431859 -245.81244466 317.62612756 -251.90258789 305.18041992 C-253.02536857 302.8774049 -253.02536857 302.8774049 -254.640625 300.30078125 C-270.09623037 274.14172503 -274.45437609 238.51840603 -274.3125 208.6875 C-274.31067719 207.8829538 -274.30885437 207.07840759 -274.30697632 206.2494812 C-274.25894503 193.60442401 -273.55513868 181.41354777 -271 169 C-270.83371094 168.12988281 -270.66742188 167.25976562 -270.49609375 166.36328125 C-265.40377186 139.92092833 -255.49755404 113.1508054 -240 91 C-239.09398627 89.64741645 -238.19028298 88.29328199 -237.2890625 86.9375 C-232.27623429 79.4979146 -227.1627008 72.54457755 -221 66 C-219.82867209 64.64986319 -218.66194538 63.29571994 -217.5 61.9375 C-210.63814794 54.11746139 -203.14804194 47.45830805 -195 41 C-194.4234668 40.54125488 -193.84693359 40.08250977 -193.25292969 39.60986328 C-191.42114023 38.1533601 -189.58637738 36.70071362 -187.75 35.25 C-187.18394043 34.80229248 -186.61788086 34.35458496 -186.03466797 33.89331055 C-180.62538178 29.64676075 -175.21324245 25.48375501 -169.125 22.25 C-168.18398437 21.74984375 -167.24296875 21.2496875 -166.2734375 20.734375 C-165.19320312 20.16203125 -164.11296875 19.5896875 -163 19 C-161.67901884 18.27726247 -160.35874746 17.55322663 -159.0390625 16.828125 C-137.89866237 5.2898953 -114.8951121 -2.5898433 -91 -6 C-90.29697754 -6.10151367 -89.59395508 -6.20302734 -88.86962891 -6.30761719 C-59.25313342 -10.42806005 -28.67706235 -8.45730313 0 0 Z " fill="#B5DDF5" transform="translate(343,57)"/>
<path d="M0 0 C0.01458252 1.00788574 0.02916504 2.01577148 0.04418945 3.05419922 C0.10270505 6.83790387 0.17992807 10.62104606 0.26245117 14.40429688 C0.29545249 16.03343492 0.32355935 17.66268051 0.34643555 19.29199219 C0.52901947 31.95632413 1.35077044 42.43256726 9 53 C9.38414062 53.59554687 9.76828125 54.19109375 10.1640625 54.8046875 C13.4013492 59.27333479 17.24360053 61.20359453 22.1875 63.4375 C29.76358597 66.94744579 29.76358597 66.94744579 31.125 70.5625 C31.4462303 72.03552904 31.73259468 73.51625546 32 75 C32.71961291 77.41952869 33.44954244 79.83600322 34.1875 82.25 C35.31240895 86.10923818 36 88.96014014 36 93 C36.66 93 37.32 93 38 93 C38.103125 92.34 38.20625 91.68 38.3125 91 C38.99762026 88.01038434 39.93204237 85.22639488 41.078125 82.3828125 C41.76335277 80.61167294 42.36537371 78.80789088 42.921875 76.9921875 C45.66278482 68.9084897 45.66278482 68.9084897 49.55859375 66.26171875 C52.33896527 65.04318415 55.13898174 64.01125829 58 63 C67.93314624 57.11369112 74.99133019 48.16313718 78 37 C78.60586812 31.29084437 78.69697337 25.61174153 78.75 19.875 C78.77821386 18.33069651 78.80814868 16.78642346 78.83984375 15.2421875 C78.91306057 11.49493426 78.96302555 7.74780674 79 4 C95.04320747 6.3197024 108.21412967 19.8422031 119 31 C119.886875 31.86625 120.77375 32.7325 121.6875 33.625 C127.06276329 39.14554068 131.3405302 44.86095291 135.39453125 51.4296875 C136.62436834 53.39862377 137.94927043 55.30845384 139.3125 57.1875 C141.45441291 60.75735485 142.15846852 63.93259787 143 68 C143.66 68 144.32 68 145 68 C147.79769535 73.91607514 150.41492547 79.76064496 152.32421875 86.02734375 C153.04505643 88.13152309 153.99187218 90.01974892 155 92 C156.58041593 96.46235085 157.19571505 100.52294301 157.55859375 105.25 C157.68512329 106.86648438 157.68512329 106.86648438 157.81420898 108.515625 C157.90617554 109.74539063 157.90617554 109.74539063 158 111 C134.21747146 124.31589006 134.21747146 124.31589006 122 129 C120.36998047 129.63808594 120.36998047 129.63808594 118.70703125 130.2890625 C64.0413027 150.79657402 3.83796137 146.58756404 -49 123 C-59.98194133 117.89187231 -73.35308033 111.64691967 -82 103 C-82.94302464 90.61124492 -74.91284784 73.90841524 -68 64 C-67.29778614 62.30830296 -66.5962276 60.61627652 -65.91015625 58.91796875 C-64.43308866 55.80534993 -62.44468749 53.05564915 -60.49609375 50.22265625 C-58.48611983 47.23655922 -56.74181254 44.14866113 -55 41 C-54.34 41 -53.68 41 -53 41 C-53 40.01 -53 39.02 -53 38 C-51.34808509 36.64843325 -49.67705908 35.320238 -48 34 C-46.91615409 32.7896137 -45.85554318 31.55821982 -44.8125 30.3125 C-35.85789053 19.88483789 -15.00117609 0 0 0 Z " fill="#EA8926" transform="translate(241,339)"/>
<path d="M0 0 C0.99 0.804375 1.98 1.60875 3 2.4375 C27.64373101 20.82250568 57.69706783 28.26117332 88 28.6875 C89.66148316 28.72078812 91.32294251 28.75528765 92.984375 28.79101562 C96.98944787 28.87457364 100.99447915 28.94198149 105 29 C105.65299201 33.08222105 106.29603821 37.16595259 106.9375 41.25 C107.21110352 42.95929688 107.21110352 42.95929688 107.49023438 44.703125 C110.82289693 66.03216532 111.13933529 87.61050091 108.6875 109.0625 C108.56987305 110.10100098 108.45224609 111.13950195 108.33105469 112.20947266 C106.60373129 125.84030731 102.90480068 141.64233352 92 151 C83.20142415 156.88107252 75.54662794 157.93409887 65 157 C44.58860846 151.96189413 23.70454198 133.27346724 12.25 115.91015625 C7.7992966 108.73337547 7.7992966 108.73337547 0.94042969 104.40673828 C-2.79820671 104.04051468 -6.4051823 104.34867681 -10.1328125 104.71484375 C-15.22595012 105.09039834 -18.04329548 104.0784861 -22 101 C-22.63292969 100.51789063 -23.26585937 100.03578125 -23.91796875 99.5390625 C-29.19112253 95.25530458 -32.41266083 91.69032284 -33.2734375 84.81640625 C-33.4668824 80.52341741 -33.45796843 78.61498617 -30.8125 75.0625 C-25.82674335 71.40627846 -22.20470141 70.48294155 -16 71 C-9.54606171 72.48847586 -4.5110797 75.4289287 1 79 C0.97381592 78.37134033 0.94763184 77.74268066 0.9206543 77.0949707 C0.46685727 64.53455831 0.30941917 54.41503417 6 43 C9.90947166 33.92880404 10.53080524 24.62001252 7.3125 15.1875 C5.60989051 11.0133606 3.5119023 7.26573797 0.953125 3.55859375 C0 2 0 2 0 0 Z " fill="#663F47" transform="translate(240,154)"/>
<path d="M0 0 C2.88562926 2.85920781 5.63031256 5.63941762 8.05859375 8.8984375 C8.87420776 9.97750366 8.87420776 9.97750366 9.70629883 11.07836914 C10.27759521 11.83625732 10.8488916 12.59414551 11.4375 13.375 C17.67570541 21.52243661 24.33513167 29.08338706 31.48681641 36.43554688 C32.8053172 37.79872098 34.09835191 39.18643578 35.38671875 40.578125 C47.21195266 53.08096011 61.23463761 61.29602459 78 65 C78 70.61 78 76.22 78 82 C79.485 82.495 79.485 82.495 81 83 C80.01 83 79.02 83 78 83 C78.02618408 83.93682617 78.05236816 84.87365234 78.0793457 85.83886719 C78.16544686 89.37272025 78.22766674 92.90543162 78.2746582 96.43994141 C78.29953709 97.95867694 78.33345385 99.47729618 78.37719727 100.99560547 C78.74466967 114.09491598 76.7076869 124.57118116 68.01171875 134.96484375 C63.15255294 139.8806212 58.1088198 143.72984819 51.25 145 C48.95804636 145.51667556 48.95804636 145.51667556 47 147 C44.66372052 151.2094657 43.12101158 155.53576838 41.63330078 160.10253906 C40.74561429 162.76217645 39.69095787 165.34503103 38.625 167.9375 C38.30789063 168.73027344 37.99078125 169.52304687 37.6640625 170.33984375 C37.33535156 171.16162109 37.33535156 171.16162109 37 172 C36.34 172 35.68 172 35 172 C33.82898756 168.04293896 32.66392728 164.08415032 31.5 160.125 C31.16613281 158.99707031 30.83226562 157.86914062 30.48828125 156.70703125 C30.17246094 155.63066406 29.85664063 154.55429687 29.53125 153.4453125 C29.23798828 152.45031738 28.94472656 151.45532227 28.64257812 150.43017578 C28 148 28 148 28 146 C26.91138672 145.82984375 26.91138672 145.82984375 25.80078125 145.65625 C16.21456785 143.41010795 8.81186816 136.02411308 3.6875 127.92578125 C-1.43792998 118.33444353 -1.264001 108.67405121 -1.15625 98.078125 C-1.14734393 96.4870848 -1.13918247 94.89604028 -1.13171387 93.30499268 C-1.10352675 88.20314759 -1.05297913 83.10163864 -1 78 C-0.98334581 76.29126028 -0.96674407 74.58252004 -0.95019531 72.8737793 C-0.83912827 61.70555218 -0.69310236 50.53790762 -0.53643799 39.37023926 C-0.47431635 34.90310033 -0.41503947 30.43592355 -0.35546875 25.96875 C-0.2396432 17.31246231 -0.12086489 8.65621879 0 0 Z " fill="#684047" transform="translate(242,260)"/>
<path d="M0 0 C7.27821405 1.03974486 10.4295538 2.14394866 15.25 7.5 C18.14118168 11.63025954 19.27829977 14.33646566 19.25 19.4375 C19.25515625 20.36433594 19.2603125 21.29117188 19.265625 22.24609375 C19 25 19 25 17 30 C11.39 30 5.78 30 0 30 C0 20.1 0 10.2 0 0 Z " fill="#717171" transform="translate(0,493)"/>
<path d="M0 0 C45.54 0 91.08 0 138 0 C135.45500795 2.54499205 132.81221966 3.6320482 129.5625 5.1875 C123.82361889 7.97958912 118.4432327 11.09810387 113.109375 14.6171875 C111 16 111 16 109 17 C109 16.01 109 15.02 109 14 C107.35 14.33 105.7 14.66 104 15 C104 14.34 104 13.68 104 13 C107 11 107 11 110 11 C110 11.99 110 12.98 110 14 C110.66 14 111.32 14 112 14 C111.505 10.04 111.505 10.04 111 6 C112.98 6 114.96 6 117 6 C117 5.34 117 4.68 117 4 C116.01 3.505 116.01 3.505 115 3 C115.99 3 116.98 3 118 3 C118 2.34 118 1.68 118 1 C116.7529126 1.0714624 115.5058252 1.1429248 114.22094727 1.21655273 C92.21782456 2.3406397 70.19671515 2.11517768 48.17211914 2.06866455 C42.7273803 2.05828794 37.28263659 2.05383674 31.83789062 2.04882812 C21.22524791 2.03822183 10.6126264 2.02123883 0 2 C0 1.34 0 0.68 0 0 Z " fill="#AECFDF" transform="translate(103,338)"/>
<path d="M0 0 C11.22 0 22.44 0 34 0 C31.63821748 4.72356504 28.99526928 6.84054092 24.0625 8.75 C16.93869916 9.61349101 11.25952497 8.51217719 5 5 C3.35 3.35 1.7 1.7 0 0 Z " fill="#DCD3CB" transform="translate(299,269)"/>
<path d="M0 0 C3.47244512 0.59285648 4.51470992 1.58522096 6.5625 4.4375 C7.25 8 7.25 8 7.5625 11.4375 C7.8925 12.4275 8.2225 13.4175 8.5625 14.4375 C3.2825 14.4375 -1.9975 14.4375 -7.4375 14.4375 C-5.37701613 0.96510546 -5.37701613 0.96510546 0 0 Z " fill="#160F10" transform="translate(284.4375,223.5625)"/>
<path d="M0 0 C0.99 0.66 1.98 1.32 3 2 C3.31765149 4.00120436 3.6304797 6.00730096 3.7890625 8.02734375 C3.95147714 10.21037625 3.95147714 10.21037625 5 13 C-0.28 13 -5.56 13 -11 13 C-8.65301781 -0.90135602 -8.65301781 -0.90135602 0 0 Z " fill="#140E0F" transform="translate(341,225)"/>
<path d="M0 0 C0.66 0.33 1.32 0.66 2 1 C1.57847656 1.45890625 1.15695313 1.9178125 0.72265625 2.390625 C0.17480469 3.00421875 -0.37304688 3.6178125 -0.9375 4.25 C-1.75541016 5.15492188 -1.75541016 5.15492188 -2.58984375 6.078125 C-4.09303446 8.12679488 -4.50353434 9.53695194 -5 12 C-7.74285714 18.74285714 -7.74285714 18.74285714 -9 20 C-10.99954746 20.04254356 -13.00041636 20.04080783 -15 20 C-15.66 20 -16.32 20 -17 20 C-17.66 19.67 -18.32 19.34 -19 19 C-12.98348207 12.26459665 -7.02537494 5.71692402 0 0 Z " fill="#E78A28" transform="translate(210,356)"/>
<path d="M0 0 C3.69195569 3.65145892 7.2848311 7.3772408 10.8125 11.1875 C11.31458984 11.72052734 11.81667969 12.25355469 12.33398438 12.80273438 C16 16.76801658 16 16.76801658 16 19 C16.99 19.33 17.98 19.66 19 20 C20.32421875 21.41796875 20.32421875 21.41796875 21.6875 23.1875 C24.96757331 27.1863803 28.76755021 30.06736347 33 33 C31.515 33.495 31.515 33.495 30 34 C29.67 34.66 29.34 35.32 29 36 C22.44747159 29.72630259 16.62665904 23.10831562 11 16 C9.99652566 14.75225669 8.99259754 13.50487822 7.98828125 12.2578125 C6.97075525 10.98485351 5.95382055 9.71142162 4.9375 8.4375 C4.44781738 7.82946533 3.95813477 7.22143066 3.45361328 6.5949707 C0 2.22942051 0 2.22942051 0 0 Z " fill="#170E0F" transform="translate(245,262)"/>
<path d="M0 0 C0.33 12.54 0.66 25.08 1 38 C0.34 38 -0.32 38 -1 38 C-1.33 28.76 -1.66 19.52 -2 10 C-6.95 8.02 -6.95 8.02 -12 6 C-8.40461874 2.91824463 -4.933456 0 0 0 Z " fill="#DC8B2D" transform="translate(241,339)"/>
<path d="M0 0 C5.23448056 1.87758542 6.53910889 6.19211541 8.796875 10.94140625 C10.28951695 14.73601224 10.69416868 17.00853009 10 21 C8 23 8 23 4.9609375 23.1953125 C3.77757812 23.17210937 2.59421875 23.14890625 1.375 23.125 C0.18648438 23.10695312 -1.00203125 23.08890625 -2.2265625 23.0703125 C-3.14179688 23.04710937 -4.05703125 23.02390625 -5 23 C-5 22.34 -5 21.68 -5 21 C-1.04 20.67 2.92 20.34 7 20 C6.72615923 13.83858277 4.37403426 9.63805845 1.27734375 4.35546875 C0 2 0 2 0 0 Z " fill="#1D1011" transform="translate(320,232)"/>
<path d="M0 0 C5.99932374 1.8331267 11.44920563 4.07321751 17 7 C16 10 16 10 14.07421875 11.16796875 C13.28660156 11.50441406 12.49898437 11.84085938 11.6875 12.1875 C10.90761719 12.53167969 10.12773437 12.87585938 9.32421875 13.23046875 C7 14 7 14 3 14 C3 13.34 3 12.68 3 12 C4.45706726 11.49632243 5.91570096 10.99717444 7.375 10.5 C8.18710938 10.2215625 8.99921875 9.943125 9.8359375 9.65625 C12 9 12 9 14 9 C14 8.34 14 7.68 14 7 C13.40832031 6.87882813 12.81664062 6.75765625 12.20703125 6.6328125 C7.96196415 5.73255357 3.97560339 4.79543379 0 3 C0 2.01 0 1.02 0 0 Z " fill="#1E1011" transform="translate(220,233)"/>
<path d="M0 0 C0.66 0 1.32 0 2 0 C2.33 0.99 2.66 1.98 3 3 C4.32 3 5.64 3 7 3 C7 4.65 7 6.3 7 8 C5.35 8.33 3.7 8.66 2 9 C4.97 9.495 4.97 9.495 8 10 C7.67 10.66 7.34 11.32 7 12 C4.67843403 12.40729228 2.3431213 12.74438677 0 13 C-0.19551338 11.39679026 -0.38111983 9.79237014 -0.5625 8.1875 C-0.71912109 6.84751953 -0.71912109 6.84751953 -0.87890625 5.48046875 C-1 3 -1 3 0 0 Z " fill="#E98920" transform="translate(273,468)"/>
<path d="M0 0 C-5.03350088 4.26753335 -7.19781243 6.07281542 -14.02734375 6.328125 C-16.53479815 5.91104348 -17.39538295 4.91145604 -19 3 C-16.586238 2.30048937 -14.16989766 1.61516081 -11.75 0.9375 C-11.06808594 0.73833984 -10.38617188 0.53917969 -9.68359375 0.33398438 C-3.41657839 -1.40009269 -3.41657839 -1.40009269 0 0 Z " fill="#190E0F" transform="translate(290,205)"/>
<path d="M0 0 C0 0.99 0 1.98 0 3 C-2.04804667 4.74616696 -4.0659424 6.31763131 -6.25 7.875 C-10.46470445 10.90402935 -13.96879345 13.69328574 -17 18 C-17 18.33 -17 18.66 -17 19 C-19.31 18.67 -21.62 18.34 -24 18 C-23.67 17.34 -23.34 16.68 -23 16 C-22.01 16 -21.02 16 -20 16 C-19.67 15.01 -19.34 14.02 -19 13 C-17.28515625 11.89453125 -17.28515625 11.89453125 -15.0625 10.8125 C-9.4795359 7.88638055 -4.80757534 4.04478677 0 0 Z " fill="#F0F9F6" transform="translate(420,434)"/>
<path d="M0 0 C5.36095277 1.58921525 10.70843973 3.18972938 16 5 C14.21822867 7.3756951 13.19924012 7.95924634 10.25 8.5625 C5.74830009 7.78335963 2.98323042 5.40688445 0 2 C0 1.34 0 0.68 0 0 Z " fill="#130E0E" transform="translate(330,203)"/>
<path d="M0 0 C3.69195569 3.65145892 7.2848311 7.3772408 10.8125 11.1875 C11.31458984 11.72052734 11.81667969 12.25355469 12.33398438 12.80273438 C16 16.76801658 16 16.76801658 16 19 C16.99 19.33 17.98 19.66 19 20 C18.01 20.66 17.02 21.32 16 22 C0 3.02766798 0 3.02766798 0 0 Z " fill="#2C1619" transform="translate(245,262)"/>
<path d="M0 0 C0.33 0.66 0.66 1.32 1 2 C2.98 2 4.96 2 7 2 C7 2.99 7 3.98 7 5 C6.01 4.67 5.02 4.34 4 4 C4.34227572 6.97065509 4.34227572 6.97065509 5 10 C5.66 10.33 6.32 10.66 7 11 C6.67 11.66 6.34 12.32 6 13 C3.45880407 11.53492275 1.11868491 10.03923423 -1 8 C-1.51546343 4.71392067 -1.48247043 2.96494087 0 0 Z " fill="#E09139" transform="translate(160,434)"/>
<path d="M0 0 C-1.32 1.32 -2.64 2.64 -4 4 C-3.34 4 -2.68 4 -2 4 C-2 5.65 -2 7.3 -2 9 C-6.95 7.02 -6.95 7.02 -12 5 C-3.89473684 -1.94736842 -3.89473684 -1.94736842 0 0 Z " fill="#DE9342" transform="translate(241,340)"/>
<path d="M0 0 C0.66 0.33 1.32 0.66 2 1 C0.89902432 2.12812303 -0.20591556 3.25237811 -1.3125 4.375 C-1.92738281 5.00148438 -2.54226562 5.62796875 -3.17578125 6.2734375 C-5 8 -5 8 -8 10 C-8.73343428 13.06556598 -8.73343428 13.06556598 -9 16 C-9.66 15.34 -10.32 14.68 -11 14 C-11.99 15.485 -11.99 15.485 -13 17 C-13.99 17 -14.98 17 -16 17 C-14.58911589 13.69346646 -12.94468631 11.8452183 -10.1875 9.5625 C-6.9591058 6.83303945 -3.94324845 4.0324378 -1 1 C-0.67 0.67 -0.34 0.34 0 0 Z " fill="#D79955" transform="translate(210,356)"/>
<path d="M0 0 C1.32 0 2.64 0 4 0 C4 2.64 4 5.28 4 8 C5.32 8.33 6.64 8.66 8 9 C4.535 10.485 4.535 10.485 1 12 C0.67 8.04 0.34 4.08 0 0 Z " fill="#9F6224" transform="translate(375,450)"/>
<path d="M0 0 C1.23593891 3.70781672 0.5678132 4.67510253 -0.9375 8.1875 C-1.31777344 9.08855469 -1.69804687 9.98960937 -2.08984375 10.91796875 C-2.39019531 11.60503906 -2.69054687 12.29210937 -3 13 C-3.66 13 -4.32 13 -5 13 C-6.19287411 9.12315913 -7 6.08378077 -7 2 C-6.34 2 -5.68 2 -5 2 C-4.67 3.65 -4.34 5.3 -4 7 C-3.896875 6.401875 -3.79375 5.80375 -3.6875 5.1875 C-2.91123545 2.71756736 -1.92911079 1.67748765 0 0 Z " fill="#774437" transform="translate(282,419)"/>
<path d="M0 0 C11.22 0 22.44 0 34 0 C33.34 1.32 32.68 2.64 32 4 C31.67 3.01 31.34 2.02 31 1 C21.1 1.33 11.2 1.66 1 2 C0.67 1.34 0.34 0.68 0 0 Z " fill="#C8B7B4" transform="translate(299,269)"/>
<path d="M0 0 C0 3.10551666 -0.5393715 4.35261084 -2 7 C-2.66 7 -3.32 7 -4 7 C-5.3726682 8.97321053 -6.70427617 10.97543152 -8 13 C-8.66 13.66 -9.32 14.32 -10 15 C-10.99 14.67 -11.98 14.34 -13 14 C-11.58474822 12.41540185 -10.1677358 10.83237609 -8.75 9.25 C-7.96109375 8.36828125 -7.1721875 7.4865625 -6.359375 6.578125 C-4.29407328 4.32133835 -2.18264936 2.14260074 0 0 Z " fill="#C1E0EE" transform="translate(134,110)"/>
<path d="M0 0 C0 0.66 0 1.32 0 2 C-2.70879335 3.35439668 -5.00933268 3.06501451 -8 3 C-8.33 3.99 -8.66 4.98 -9 6 C-11.64 5.67 -14.28 5.34 -17 5 C-13.86768478 2.91178985 -11.56941553 2.24877798 -7.9375 1.375 C-6.87402344 1.11460937 -5.81054688 0.85421875 -4.71484375 0.5859375 C-2 0 -2 0 0 0 Z M-13 6 C-12.01 6 -11.02 6 -10 6 C-10 6.66 -10 7.32 -10 8 C-11.32 7.67 -12.64 7.34 -14 7 C-13.67 6.67 -13.34 6.34 -13 6 Z " fill="#F9EBD4" transform="translate(351,472)"/>
<path d="M0 0 C0.66 0.33 1.32 0.66 2 1 C2.125 6.75 2.125 6.75 1 9 C0.443125 8.9278125 -0.11375 8.855625 -0.6875 8.78125 C-5.8359445 8.15508783 -10.81463038 7.90572055 -16 8 C-16 7.67 -16 7.34 -16 7 C-12.32612505 6.14701624 -8.9552607 5.89210529 -5.1875 5.9375 C-4.21167969 5.94652344 -3.23585937 5.95554688 -2.23046875 5.96484375 C-1.49441406 5.97644531 -0.75835937 5.98804688 0 6 C0 4.02 0 2.04 0 0 Z " fill="#1F2B31" transform="translate(216,140)"/>
<path d="M0 0 C0.66 0 1.32 0 2 0 C3.2380014 3.57644848 2.74926071 6.33694766 2 10 C-0.64 8.02 -3.28 6.04 -6 4 C-5.34 3.67 -4.68 3.34 -4 3 C-3.01 3.33 -2.02 3.66 -1 4 C-0.67 2.68 -0.34 1.36 0 0 Z " fill="#BFDBE4" transform="translate(157,432)"/>
<path d="M0 0 C6.75 2.75 6.75 2.75 9 5 C9.125 8.125 9.125 8.125 9 11 C8.34 11 7.68 11 7 11 C6.67 9.35 6.34 7.7 6 6 C3.03 5.505 3.03 5.505 0 5 C0 3.35 0 1.7 0 0 Z " fill="#EEEEEE" transform="translate(0,503)"/>
<path d="M0 0 C1.81612488 0.95144598 3.62781081 1.91136933 5.4375 2.875 C6.44683594 3.40867187 7.45617187 3.94234375 8.49609375 4.4921875 C11 6 11 6 12 8 C10.54119891 7.85892253 9.08296449 7.71197585 7.625 7.5625 C6.40683594 7.44068359 6.40683594 7.44068359 5.1640625 7.31640625 C3 7 3 7 1 6 C0.375 2.9375 0.375 2.9375 0 0 Z " fill="#DF8E33" transform="translate(329,346)"/>
<path d="M0 0 C0.66 0 1.32 0 2 0 C2 1.98 2 3.96 2 6 C1.34 6 0.68 6 0 6 C0.309375 7.918125 0.309375 7.918125 0.625 9.875 C0.9765625 12.0546875 0.9765625 12.0546875 1 14 C0.34 14.66 -0.32 15.32 -1 16 C-1.92350727 13.22947819 -2.16329585 11.43311242 -2.1875 8.5625 C-2.20167969 7.80066406 -2.21585937 7.03882813 -2.23046875 6.25390625 C-1.97612666 3.76652685 -1.24017196 2.15191894 0 0 Z " fill="#C0D4DA" transform="translate(400,434)"/>
<path d="M0 0 C0.6875 1.6875 0.6875 1.6875 1 4 C-0.3125 6.75 -0.3125 6.75 -2 9 C-2.66 9 -3.32 9 -4 9 C-4.4021875 10.11375 -4.4021875 10.11375 -4.8125 11.25 C-5.94229421 13.86636554 -7.20893202 15.80187111 -9 18 C-9.66 17.67 -10.32 17.34 -11 17 C-10.45730469 16.19175781 -9.91460937 15.38351562 -9.35546875 14.55078125 C-8.64003906 13.48214844 -7.92460937 12.41351563 -7.1875 11.3125 C-6.12595703 9.72888672 -6.12595703 9.72888672 -5.04296875 8.11328125 C-3.29133435 5.44396458 -1.61824006 2.75151858 0 0 Z " fill="#ECFBFC" transform="translate(469,378)"/>
<path d="M0 0 C5.61 0 11.22 0 17 0 C17 0.33 17 0.66 17 1 C14.69 1.66 12.38 2.32 10 3 C10 2.34 10 1.68 10 1 C7.36 1 4.72 1 2 1 C2 1.66 2 2.32 2 3 C3.32 3 4.64 3 6 3 C6 3.99 6 4.98 6 6 C4.02 5.34 2.04 4.68 0 4 C0 2.68 0 1.36 0 0 Z " fill="#BBD7DE" transform="translate(320,338)"/>
<path d="M0 0 C3.63 1.32 7.26 2.64 11 4 C11 4.33 11 4.66 11 5 C4.4 5 -2.2 5 -9 5 C-9 4.67 -9 4.34 -9 4 C-5.37 4 -1.74 4 2 4 C2 3.34 2 2.68 2 2 C1.34 2 0.68 2 0 2 C0 1.34 0 0.68 0 0 Z " fill="#13181D" transform="translate(450,331)"/>
<path d="M0 0 C2.1519437 3.22791555 2.20086443 4.28400809 2 8 C1.34 7.01 0.68 6.02 0 5 C0 7.31 0 9.62 0 12 C-1.32 12 -2.64 12 -4 12 C-3.52494322 10.18641846 -3.04483958 8.37415821 -2.5625 6.5625 C-2.29566406 5.55316406 -2.02882812 4.54382813 -1.75390625 3.50390625 C-1 1 -1 1 0 0 Z " fill="#DB9240" transform="translate(165,420)"/>
<path d="M0 0 C-0.99 0 -1.98 0 -3 0 C-3 0.66 -3 1.32 -3 2 C0.465 1.505 0.465 1.505 4 1 C4 1.66 4 2.32 4 3 C3.34 3 2.68 3 2 3 C2.33 3.99 2.66 4.98 3 6 C-0.7910119 4.55049545 -4.3874638 2.84827434 -8 1 C-4.93251126 -0.86240388 -3.40254489 -1.2151946 0 0 Z " fill="#C3D2CE" transform="translate(334,344)"/>
<path d="M0 0 C0.99 0 1.98 0 3 0 C2.84660156 0.62261719 2.69320313 1.24523437 2.53515625 1.88671875 C1.79669205 6.18274772 1.63537838 10.46241952 1.4375 14.8125 C1.39431641 15.69615234 1.35113281 16.57980469 1.30664062 17.49023438 C1.20108464 19.65999623 1.10008929 21.8299791 1 24 C0.67 24 0.34 24 0 24 C0 16.08 0 8.16 0 0 Z " fill="#F2861D" transform="translate(321,344)"/>
<path d="M0 0 C2.60662244 0.25496307 5.20905522 0.52820293 7.8125 0.8125 C8.55048828 0.88275391 9.28847656 0.95300781 10.04882812 1.02539062 C15.54974762 1.64766659 15.54974762 1.64766659 18.01171875 3.57421875 C18.50091797 4.27998047 18.50091797 4.27998047 19 5 C12.42465139 4.37968409 6.33307408 2.85102717 0 1 C0 0.67 0 0.34 0 0 Z " fill="#DC9F59" transform="translate(220,472)"/>
<path d="M0 0 C3.30469874 0.38837272 5.89576006 1.92550945 8.75 3.5625 C9.94882813 4.24505859 9.94882813 4.24505859 11.171875 4.94140625 C11.77515625 5.29074219 12.3784375 5.64007813 13 6 C11 7 11 7 7.9609375 6.00390625 C6.77757812 5.52824219 5.59421875 5.05257813 4.375 4.5625 C3.18648437 4.08941406 1.99796875 3.61632812 0.7734375 3.12890625 C-0.14179688 2.75636719 -1.05703125 2.38382812 -2 2 C-1.34 1.34 -0.68 0.68 0 0 Z " fill="#DC9C4F" transform="translate(206,465)"/>
<path d="M0 0 C0.125 7.75 0.125 7.75 -1 10 C-1.99 9.67 -2.98 9.34 -4 9 C-4.368 3.48 -4.368 3.48 -2.5625 1.125 C-1 0 -1 0 0 0 Z " fill="#B9DCE7" transform="translate(400,428)"/>
<path d="M0 0 C4.77962147 -0.19118486 8.60470084 0.01165038 13 2 C13.33 2.99 13.66 3.98 14 5 C12.41531323 4.54636829 10.83230076 4.08688548 9.25 3.625 C8.36828125 3.36976563 7.4865625 3.11453125 6.578125 2.8515625 C4.23919428 2.0790066 2.16557438 1.16374324 0 0 Z " fill="#A3C5D4" transform="translate(342,132)"/>
<path d="M0 0 C1.04706765 3.7166905 1.00372456 6.21673052 0 10 C-2.0625 12.875 -2.0625 12.875 -4 15 C-3.43179252 9.54520815 -2.05362055 5.08940744 0 0 Z " fill="#A2C1CF" transform="translate(379,177)"/>
<path d="M0 0 C1.2077558 3.62326739 0.54311128 4.64146369 -1 8 C-2.32 8 -3.64 8 -5 8 C-3.375 2.25 -3.375 2.25 0 0 Z " fill="#E0923E" transform="translate(172,407)"/>
<path d="M0 0 C2.49824035 1.4976696 4.86004673 3.01558218 7 5 C7.4375 7.8125 7.4375 7.8125 7 10 C2.57320993 8.52440331 2.08567304 6.09942632 0 2 C0 1.34 0 0.68 0 0 Z " fill="#593D45" transform="translate(240,154)"/>
<path d="M0 0 C2.64 0 5.28 0 8 0 C7.34 0.66 6.68 1.32 6 2 C6.99 2.66 7.98 3.32 9 4 C5.37 3.67 1.74 3.34 -2 3 C-1.34 2.67 -0.68 2.34 0 2 C0 1.34 0 0.68 0 0 Z " fill="#E49645" transform="translate(252,477)"/>
<path d="M0 0 C0.66 0.33 1.32 0.66 2 1 C1.67 2.32 1.34 3.64 1 5 C-1.64 5 -4.28 5 -7 5 C-2.25 1.125 -2.25 1.125 0 0 Z " fill="#F4EDD7" transform="translate(392,453)"/>
<path d="M0 0 C2.36574234 3.5486135 2.10865265 4.5764525 1.625 8.6875 C1.51414062 9.68136719 1.40328125 10.67523438 1.2890625 11.69921875 C1.19367188 12.45847656 1.09828125 13.21773438 1 14 C-1.105184 10.842224 -1.25289344 10.04602866 -1.1875 6.4375 C-1.18105469 5.65246094 -1.17460938 4.86742187 -1.16796875 4.05859375 C-1 2 -1 2 0 0 Z " fill="#243239" transform="translate(115,275)"/>
<path d="M0 0 C1.32 0 2.64 0 4 0 C4 1.65 4 3.3 4 5 C2.35 4.67 0.7 4.34 -1 4 C-0.67 2.68 -0.34 1.36 0 0 Z " fill="#391D0C" transform="translate(276,471)"/>
<path d="M0 0 C1.32 0 2.64 0 4 0 C4 1.65 4 3.3 4 5 C2.35 4.67 0.7 4.34 -1 4 C-0.67 2.68 -0.34 1.36 0 0 Z " fill="#381E0A" transform="translate(276,450)"/>
<path d="M0 0 C0 0.66 0 1.32 0 2 C-2.30276574 4.21747812 -3.52480092 4.96760006 -6.75 5.1875 C-7.86375 5.0946875 -7.86375 5.0946875 -9 5 C-8.67 4.01 -8.34 3.02 -8 2 C-5.27366306 0.89786379 -2.95855967 0 0 0 Z " fill="#D58234" transform="translate(297,404)"/>
<path d="M0 0 C0 0.99 0 1.98 0 3 C0.99 3.33 1.98 3.66 3 4 C1.02 4.99 1.02 4.99 -1 6 C-1 5.01 -1 4.02 -1 3 C-2.65 3.33 -4.3 3.66 -6 4 C-6 3.34 -6 2.68 -6 2 C-3 0 -3 0 0 0 Z " fill="#BFDAE6" transform="translate(213,349)"/>
<path d="M0 0 C1.98 0 3.96 0 6 0 C6 0.66 6 1.32 6 2 C7.98 2.66 9.96 3.32 12 4 C9.5332355 4.88336837 8.36140628 5.1312406 5.859375 4.22265625 C5.16328125 3.83980469 4.4671875 3.45695312 3.75 3.0625 C3.04359375 2.68222656 2.3371875 2.30195313 1.609375 1.91015625 C1.07828125 1.60980469 0.5471875 1.30945313 0 1 C0 0.67 0 0.34 0 0 Z " fill="#A5C5D4" transform="translate(450,330)"/>
<path d="M0 0 C0.33 0 0.66 0 1 0 C1.17835515 4.54805635 0.99785435 7.8794254 -1 12 C-1.66 12 -2.32 12 -3 12 C-2.69106068 10.3743193 -2.3777305 8.74947252 -2.0625 7.125 C-1.88847656 6.22007812 -1.71445313 5.31515625 -1.53515625 4.3828125 C-1 2 -1 2 0 0 Z " fill="#C2E2EE" transform="translate(78,202)"/>
<path d="M0 0 C5.94 3.465 5.94 3.465 12 7 C9 8 9 8 6.9921875 7.109375 C6.29351562 6.66078125 5.59484375 6.2121875 4.875 5.75 C4.17117187 5.31171875 3.46734375 4.8734375 2.7421875 4.421875 C1 3 1 3 0 0 Z " fill="#FCEDD6" transform="translate(162,444)"/>
<path d="M0 0 C3.3 0.99 6.6 1.98 10 3 C9.01 3.33 8.02 3.66 7 4 C6.34 3.67 5.68 3.34 5 3 C4.67 3.99 4.34 4.98 4 6 C2.62437146 4.71034824 1.29233607 3.37310707 0 2 C0 1.34 0 0.68 0 0 Z " fill="#271518" transform="translate(330,203)"/>
<path d="M0 0 C0.66 0.33 1.32 0.66 2 1 C1.236875 1.556875 0.47375 2.11375 -0.3125 2.6875 C-2.97421242 4.97781069 -4.28736991 6.9825089 -6 10 C-6.99 10.495 -6.99 10.495 -8 11 C-6.60366572 6.55711819 -4.39598172 4.13475236 -1 1 C-0.67 0.67 -0.34 0.34 0 0 Z " fill="#1B252D" transform="translate(225,119)"/>
<path d="M0 0 C6.93 0.495 6.93 0.495 14 1 C14 1.33 14 1.66 14 2 C8.72 2.66 3.44 3.32 -2 4 C-1.34 2.68 -0.68 1.36 0 0 Z " fill="#B0D3E3" transform="translate(270,95)"/>
<path d="M0 0 C1 4 1 4 1 5 C-0.65 5 -2.3 5 -4 5 C-4 5.66 -4 6.32 -4 7 C-5.32 6.67 -6.64 6.34 -8 6 C-5.36 4.02 -2.72 2.04 0 0 Z " fill="#D17F31" transform="translate(306,397)"/>
<path d="M0 0 C0.66 0.33 1.32 0.66 2 1 C1.01 3.31 0.02 5.62 -1 8 C-1.66 8 -2.32 8 -3 8 C-3 8.66 -3 9.32 -3 10 C-3.66 9.67 -4.32 9.34 -5 9 C-4.01 7.02 -3.02 5.04 -2 3 C-1.34 3 -0.68 3 0 3 C0 2.01 0 1.02 0 0 Z " fill="#D79D57" transform="translate(188,377)"/>
<path d="M0 0 C2.39223697 2.39223697 2.6758631 3.67759676 3 7 C2.01 8.485 2.01 8.485 1 10 C0.34 10 -0.32 10 -1 10 C-0.814375 9.05125 -0.62875 8.1025 -0.4375 7.125 C0.28686632 4.10131207 0.28686632 4.10131207 -1 2 C-0.67 1.34 -0.34 0.68 0 0 Z " fill="#E28C2E" transform="translate(172,404)"/>
<path d="M0 0 C0.33 0.66 0.66 1.32 1 2 C-0.61000397 5.13950774 -2.38499232 7.63404067 -5 10 C-5.66 9.67 -6.32 9.34 -7 9 C-4.69 6.03 -2.38 3.06 0 0 Z " fill="#E9F8F9" transform="translate(455,398)"/>
<path d="M0 0 C4.875 4.625 4.875 4.625 6 8 C4 8 4 8 2.375 6.5 C1.92125 6.005 1.4675 5.51 1 5 C1 5.66 1 6.32 1 7 C0.34 7 -0.32 7 -1 7 C-0.67 4.69 -0.34 2.38 0 0 Z " fill="#D9842E" transform="translate(246,388)"/>
<path d="M0 0 C0.66 0 1.32 0 2 0 C2.66 2.64 3.32 5.28 4 8 C1.69 6.35 -0.62 4.7 -3 3 C-2.01 2.01 -1.02 1.02 0 0 Z " fill="#C2D4D2" transform="translate(343,350)"/>
<path d="M0 0 C2.31 0.66 4.62 1.32 7 2 C7 2.99 7 3.98 7 5 C4.69 4.34 2.38 3.68 0 3 C0 2.01 0 1.02 0 0 Z " fill="#251616" transform="translate(220,233)"/>
<path d="M0 0 C0.66 0 1.32 0 2 0 C1.54965877 1.62723299 1.08944646 3.25173664 0.625 4.875 C0.36976562 5.77992188 0.11453125 6.68484375 -0.1484375 7.6171875 C-1 10 -1 10 -3 12 C-2.49202991 7.6822542 -1.80317221 3.96697886 0 0 Z " fill="#EBF9FC" transform="translate(85,178)"/>
<path d="M0 0 C0.66 0.33 1.32 0.66 2 1 C1.2884375 1.7115625 1.2884375 1.7115625 0.5625 2.4375 C-1.68076096 6.11644797 -1.73739578 9.7621112 -2 14 C-2.33 14 -2.66 14 -3 14 C-3.08153933 12.41753293 -3.13943557 10.83383727 -3.1875 9.25 C-3.22230469 8.36828125 -3.25710937 7.4865625 -3.29296875 6.578125 C-2.94923684 3.55328417 -1.99772541 2.24416398 0 0 Z " fill="#1C2C35" transform="translate(188,151)"/>
<path d="M0 0 C0.33 0.66 0.66 1.32 1 2 C0.29296875 3.91015625 0.29296875 3.91015625 -0.8125 6.0625 C-1.16957031 6.77535156 -1.52664062 7.48820313 -1.89453125 8.22265625 C-3 10 -3 10 -5 11 C-4.46884894 6.48521602 -2.63379708 3.65333143 0 0 Z " fill="#C3E1EF" transform="translate(107,142)"/>
<path d="M0 0 C2.97 0.495 2.97 0.495 6 1 C5.01 2.485 5.01 2.485 4 4 C3.34 4 2.68 4 2 4 C1.67 4.99 1.34 5.98 1 7 C0.67 4.69 0.34 2.38 0 0 Z " fill="#BBDAE4" transform="translate(186,373)"/>
<path d="M0 0 C0.99 0.33 1.98 0.66 3 1 C0.36 2.98 -2.28 4.96 -5 7 C-5.33 6.34 -5.66 5.68 -6 5 C-5.34 5 -4.68 5 -4 5 C-4 4.34 -4 3.68 -4 3 C-2.1875 1.3125 -2.1875 1.3125 0 0 Z " fill="#583E41" transform="translate(332,301)"/>
<path d="M0 0 C2 3 2 3 2 7 C2.66 7 3.32 7 4 7 C4 7.66 4 8.32 4 9 C2.68 8.67 1.36 8.34 0 8 C0 5.36 0 2.72 0 0 Z " fill="#CC7F30" transform="translate(275,425)"/>
<path d="M0 0 C0.66 0 1.32 0 2 0 C1.979375 1.051875 1.95875 2.10375 1.9375 3.1875 C1.98896802 6.32704904 2.26517187 8.96883396 3 12 C2.34 11.67 1.68 11.34 1 11 C0.33203125 8.75 0.33203125 8.75 -0.1875 6 C-0.36667969 5.0925 -0.54585938 4.185 -0.73046875 3.25 C-0.81941406 2.5075 -0.90835937 1.765 -1 1 C-0.67 0.67 -0.34 0.34 0 0 Z " fill="#C9CBBC" transform="translate(391,415)"/>
<path d="M0 0 C0.66 0.33 1.32 0.66 2 1 C0.35 3.64 -1.3 6.28 -3 9 C-3.33 8.01 -3.66 7.02 -4 6 C-2.0625 2.8125 -2.0625 2.8125 0 0 Z " fill="#BFDEEC" transform="translate(469,375)"/>
<path d="M0 0 C0.33 0.99 0.66 1.98 1 3 C-2.26760563 8.63380282 -2.26760563 8.63380282 -5 10 C-3.84414715 6.08788267 -2.64465038 3.1254959 0 0 Z " fill="#C4E0EE" transform="translate(100,153)"/>
<path d="M0 0 C0 0.33 0 0.66 0 1 C-1.60049704 1.39036513 -3.20562371 1.76178619 -4.8125 2.125 C-5.70582031 2.33382812 -6.59914062 2.54265625 -7.51953125 2.7578125 C-10 3 -10 3 -13 1 C-8.59085217 -0.10228696 -4.51617599 -0.07654536 0 0 Z " fill="#C5E4F3" transform="translate(260,51)"/>
<path d="M0 0 C0.66 1.32 1.32 2.64 2 4 C0.68 4.33 -0.64 4.66 -2 5 C-2 5.99 -2 6.98 -2 8 C-2.66 8 -3.32 8 -4 8 C-2.87548273 5.0280615 -1.77706209 2.66559313 0 0 Z " fill="#D79B57" transform="translate(178,393)"/>
<path d="M0 0 C0.99 0 1.98 0 3 0 C3.33 1.65 3.66 3.3 4 5 C2.68 5.33 1.36 5.66 0 6 C0 4.02 0 2.04 0 0 Z " fill="#A5CBE0" transform="translate(186,174)"/>
<path d="M0 0 C0 3 0 3 -1 6 C-2.65 6 -4.3 6 -6 6 C-4 4 -2 2 0 0 Z " fill="#1A2227" transform="translate(257,104)"/>
</svg>
